# AST/ASF file generated using VICON BodyLanguage
# -----------------------------------------------
:version 1.10
:name VICON
:units
  mass 1.0
  length 0.45
  angle deg
:documentation
   .ast/.asf automatically generated from VICON data using
   VICON BodyBuilder and BodyLanguage model FoxedUp or BRILLIANT.MOD
:root
   order TX TY TZ RX RY RZ
   axis XYZ
   position 0 0 0  
   orientation 0 0 0 
:bonedata
  begin
     id 1 
     name lhipjoint
     direction 0.440178 -0.822639 0.359871 
     length 2.53113 
     axis 0 0 0  XYZ
  end
  begin
     id 2 
     name lfemur
     direction 0.34202 -0.939693 0  
     length 7.88132  
     axis 0 0 20  XYZ
    dof rx ry rz
    limits (-160.0 20.0)
           (-70.0 70.0)
           (-60.0 70.0)
  end
  begin
     id 3 
     name ltibia
     direction 0.34202 -0.939693 0   
     length 8.43783   
     axis 0 0 20   XYZ
    dof rx
    limits (-10.0 170.0)
  end
  begin
     id 4 
     name lfoot
     direction 0.0886351 -0.243523 0.965837   
     length 2.63414   
     axis -90 7.62852e-016 20   XYZ
    dof rx rz
    limits (-45.0 90.0)
           (-70.0 20.0)
  end
  begin
     id 5 
     name ltoes
     direction 1.53703e-011 -4.21717e-011 1   
     length 1.31427   
     axis -90 7.62852e-016 20   XYZ
    dof rx
    limits (-90.0 20.0)
  end
  begin
     id 6 
     name rhipjoint
     direction -0.399779 -0.839773 0.367367   
     length 2.47948  
     axis 0 0 0  XYZ 
  end
  begin
     id 7 
     name rfemur
     direction -0.34202 -0.939693 0   
     length 7.74806   
     axis 0 0 -20   XYZ
    dof rx ry rz
    limits (-160.0 20.0)
           (-70.0 70.0)
           (-70.0 60.0)
  end
  begin
     id 8 
     name rtibia
     direction -0.34202 -0.939693 0   
     length 8.74432   
     axis 0 0 -20   XYZ
    dof rx
    limits (-10.0 170.0)
 end
 begin
     id 9 
     name rfoot
     direction -0.108514 -0.298139 0.948334   
     length 2.66102  
     axis -90 -7.62852e-016 -20   XYZ
    dof rx rz
    limits (-45.0 90.0)
           (-20.0 70.0)
  end
  begin
     id 10 
     name rtoes
     direction -1.53392e-011 -4.22077e-011 1   
     length 1.31983   
     axis -90 -7.62852e-016 -20   XYZ
    dof rx
    limits (-90.0 20.0)
  end
  begin
     id 11 
     name lowerback
     direction 0.0113257 0.999866 0.0118602   
     length 2.58694   
     axis 0 0 0   XYZ
    dof rx ry rz
    limits (-20.0 45.0)
           (-30.0 30.0)
           (-30.0 30.0)
  end
  begin
     id 12 
     name upperback
     direction -0.0164747 0.995193 -0.0965375   
     length 2.52368   
     axis 0 0 0   XYZ
    dof rx ry rz
    limits (-20.0 45.0)
           (-30.0 30.0)
           (-30.0 30.0)
  end
  begin
     id 13 
     name thorax
     direction -0.0194301 0.99433 -0.104552   
     length 2.56099   
     axis 0 0 0   XYZ
    dof rx ry rz
    limits (-20.0 45.0)
           (-30.0 30.0)
           (-30.0 30.0)
  end
  begin
     id 14 
     name lowerneck
     direction 0.0148543 0.995587 -0.092657   
     length 1.71582   
     axis 0 0 0   XYZ
    dof rx ry rz
    limits (-20.0 45.0)
           (-30.0 30.0)
           (-30.0 30.0)
  end
  begin
     id 15 
     name upperneck
     direction -0.0135467 0.993656 -0.111639   
     length 1.68937   
     axis 0 0 0   XYZ
    dof rx ry rz
    limits (-20.0 45.0)
           (-30.0 30.0)
           (-30.0 30.0)
  end
  begin
     id 16
     name head
     direction -0.00615349 0.999547 -0.029448  
     length 1.7462  
     axis 0 0 0   XYZ
    dof rx ry rz
    limits (-20.0 45.0)
           (-30.0 30.0)
           (-30.0 30.0)
  end
  begin
     id 17 
     name lclavicle
     direction 0.988267 0.149885 0.0293713  
     length 4.47222  
     axis 0 0 0   XYZ
    dof ry rz
    limits (-20.0 10.0)
           (0.0 20.0)
  end
  begin
     id 18 
     name lhumerus
     direction 1 -4.48986e-011 -1.14833e-027   
     length 5.37148   
     axis 180 -30 -90   XYZ
    dof rx ry rz
    limits (-60.0 90.0)
           (-90.0 90.0)
           (-90.0 90.0)
  end
  begin
     id 19
     name lradius
     direction 0.999998 0.00170963 -0.000987055   
     length 3.94212   
     axis 180 -30 -90   XYZ
    dof rx
    limits (-10.0 170.0)
  end
  begin
     id 20
     name lwrist
     direction 0.999998 7.53149e-005 -0.00194706   
     length 1.97106   
     axis 4.65056e-015 90 90   XYZ
    dof ry
    limits (-180.0 0.0)
 end
  begin
     id 21 
     name lhand
     direction 1 -4.48973e-011 -1.31746e-026   
     length 1.17917   
     axis 8.4065e-015 90 90   XYZ
    dof rx rz
    limits (-90.0 90.0)
           (-45.0 45.0)
  end
  begin
     id 22 
     name lfingers
     direction 1 -4.49107e-011 -2.63492e-026   
     length 0.950679   
     axis 1.6813e-014 90 90   XYZ
    dof rx
    limits (0.0 90.0)
  end
  begin
     id 23
     name lthumb
     direction 0.707107 -6.35048e-011 0.707107   
     length 1.36499   
     axis -90 45 2.85299e-015   XYZ
    dof rx rz
    limits (-45.0 45.0)
           (-45.0 45.0)
  end
  begin
     id 24 
     name rclavicle
     direction -0.996699 0.0642895 -0.0495725   
     length 4.62611  
     axis 0 0 0   XYZ 
    dof ry rz
    limits (-10.0 20.0)
           (-20.0 0.0)
  end
  begin
     id 25 
     name rhumerus
     direction -1 -4.48919e-011 -2.41059e-027  
     length 5.4981   
     axis 180 30 90   XYZ
    dof rx ry rz
    limits (-90.0 60.0)
           (-90.0 90.0)
           (-90.0 90.0)
  end
  begin
     id 26 
     name rradius
     direction -0.999999 0.00118101 -0.000681858   
     length 3.48381   
     axis 180 30 90   XYZ
    dof rx
    limits (-10.0 170.0)
  end
  begin
     id 27 
     name rwrist
     direction -0.999999 0.000321823 -0.00132288   
     length 1.7419   
     axis 4.65056e-015 -90 -90   XYZ
    dof ry
    limits (-180.0 0.0)
  end
  begin
     id 28
     name rhand
     direction -1 -4.49022e-011 -1.31746e-026   
     length 1.34932   
     axis 8.4065e-015 -90 -90   XYZ
    dof rx rz
    limits (-90.0 90.0)
           (-45.0 45.0)
  end
  begin
     id 29
     name rfingers
     direction -1 -4.49178e-011 -2.63492e-026   
     length 1.08785   
     axis 1.6813e-014 -90 -90   XYZ
    dof rx
    limits (0.0 90.0)
  end
  begin
     id 30
     name rthumb
     direction -0.707107 -6.34713e-011 0.707107   
     length 1.56195   
     axis -90 -45 -2.85299e-015   XYZ
    dof rx rz
    limits (-45.0 45.0)
           (-45.0 45.0)
  end
:hierarchy
  begin
    root lhipjoint rhipjoint lowerback
    lhipjoint lfemur
    lfemur ltibia
    ltibia lfoot
    lfoot ltoes
    rhipjoint rfemur
    rfemur rtibia
    rtibia rfoot
    rfoot rtoes
    lowerback upperback
    upperback thorax
    thorax lowerneck lclavicle rclavicle
    lowerneck upperneck
    upperneck head
    lclavicle lhumerus
    lhumerus lradius
    lradius lwrist
    lwrist lhand lthumb
    lhand lfingers
    rclavicle rhumerus
    rhumerus rradius
    rradius rwrist
    rwrist rhand rthumb
    rhand rfingers
  end

#!OML:ASF X:\für Bonn\!DataBase\2005_08_10_Bjorn_Final\c3d\bjorn.ASF
:FULLY-SPECIFIED
:DEGREES
1
root 0.49178 19.1363 1.94513 -175.423 1.56448 180.604
lowerback -12.6067 2.50583 2.00686
upperback 2.99276 3.03777 -0.107737
thorax 10.4474 1.58325 -0.595339
lowerneck -12.5727 -1.43477 0.730631
upperneck 21.9039 -2.61992 -1.61883
head 8.8924 -1.65799 -1.01671
rclavicle 4.18069e-015 4.32357e-015
rhumerus 68.8839 2.82852 -85.9945
rradius 1.92868
rwrist 53.2306
rhand -13.5558 3.16168
rfingers 7.12502
rthumb 12.5574 -26.4409
lclavicle 4.18069e-015 4.32357e-015
lhumerus 69.5108 -10.7967 90.8085
lradius 4.13558
lwrist -73.8671
lhand -10.0012 2.41543
lfingers 7.12502
lthumb 15.9825 31.7761
rfemur -14.0522 -13.1684 18.0495
rtibia 32.2578
rfoot -17.0771 21.234
rtoes -9.37276
lfemur -11.3131 10.7358 -17.0463
ltibia 30.3861
lfoot -17.7144 -8.87263
ltoes -3.93492
2
root 0.492545 19.1385 1.95633 -175.395 1.58853 180.549
lowerback -12.2811 2.50201 1.92721
upperback 3.01693 3.05511 -0.12344
thorax 10.2796 1.58827 -0.577104
lowerneck -12.7461 -1.45118 0.736811
upperneck 21.7934 -2.60616 -1.67684
head 8.88573 -1.64783 -1.03533
rclavicle -3.53402e-014 -1.2921e-015
rhumerus 69.1822 2.83186 -85.9186
rradius 2.03322
rwrist 53.181
rhand -13.5511 3.19007
rfingers 7.12502
rthumb 12.562 -26.4123
lclavicle -3.53402e-014 -1.2921e-015
lhumerus 69.8227 -10.8513 90.7124
lradius 4.14516
lwrist -74.2132
lhand -9.93987 2.4599
lfingers 7.12502
lthumb 16.0415 31.8158
rfemur -14.1354 -12.9626 18.0207
rtibia 32.2857
rfoot -17.1247 21.0227
rtoes -9.44671
lfemur -11.3737 10.7771 -17.1245
ltibia 30.3618
lfoot -17.6772 -8.82332
ltoes -4.15557
3
root 0.492778 19.1414 1.96828 -175.372 1.63368 180.5
lowerback -11.8989 2.49566 1.84862
upperback 3.00124 3.06789 -0.123404
thorax 10.0335 1.59047 -0.547266
lowerneck -12.8 -1.45533 0.716684
upperneck 21.6552 -2.5743 -1.7362
head 8.84802 -1.6338 -1.04602
rclavicle -1.26353e-014 -2.13694e-015
rhumerus 69.4166 2.84945 -85.8171
rradius 2.13095
rwrist 53.0904
rhand -13.5048 3.25086
rfingers 7.12502
rthumb 12.6065 -26.3487
lclavicle -1.26353e-014 -2.13694e-015
lhumerus 70.0356 -10.8743 90.6469
lradius 4.21213
lwrist -74.6224
lhand -9.85189 2.50625
lfingers 7.12502
lthumb 16.1263 31.8553
rfemur -14.2182 -12.8067 17.9934
rtibia 32.3127
rfoot -17.193 20.8277
rtoes -9.73724
lfemur -11.4307 10.7545 -17.2023
ltibia 30.3426
lfoot -17.6362 -8.74364
ltoes -4.10309
4
root 0.493684 19.1436 1.98111 -175.345 1.66112 180.426
lowerback -11.551 2.48105 1.74697
upperback 3.03073 3.07339 -0.136765
thorax 9.85691 1.58886 -0.517711
lowerneck -12.8547 -1.47412 0.720321
upperneck 21.4228 -2.55402 -1.81367
head 8.77747 -1.62141 -1.06601
rclavicle -1.71949e-014 5.36719e-015
rhumerus 69.7206 2.86821 -85.7309
rradius 2.26811
rwrist 53.0358
rhand -13.379 3.25964
rfingers 7.12502
rthumb 12.7279 -26.3325
lclavicle -1.71949e-014 5.36719e-015
lhumerus 70.3363 -10.8972 90.5513
lradius 4.25174
lwrist -75.0605
lhand -9.67768 2.47954
lfingers 7.12502
lthumb 16.294 31.815
rfemur -14.3078 -12.6352 17.9469
rtibia 32.3419
rfoot -17.2559 20.6222
rtoes -9.9536
lfemur -11.5063 10.7682 -17.3055
ltibia 30.331
lfoot -17.6268 -8.65478
ltoes -4.54258
5
root 0.494349 19.1458 1.99493 -175.325 1.69214 180.389
lowerback -11.1528 2.49225 1.7084
upperback 3.0298 3.10541 -0.164556
thorax 9.62282 1.60424 -0.536831
lowerneck -12.8161 -1.5068 0.720281
upperneck 21.1681 -2.56928 -1.83303
head 8.68281 -1.62126 -1.06813
rclavicle -2.08724e-015 1.04362e-015
rhumerus 69.9553 2.81654 -85.6563
rradius 2.42072
rwrist 52.9502
rhand -13.1583 3.3106
rfingers 7.12502
rthumb 12.9406 -26.2681
lclavicle -2.08724e-015 1.04362e-015
lhumerus 70.5934 -10.9935 90.4567
lradius 4.28223
lwrist -75.5875
lhand -9.37654 2.40792
lfingers 7.12502
lthumb 16.584 31.7193
rfemur -14.3909 -12.3584 17.9472
rtibia 32.3671
rfoot -17.3496 20.3127
rtoes -10.1954
lfemur -11.5827 10.7614 -17.3679
ltibia 30.3354
lfoot -17.5974 -8.56983
ltoes -4.66292
6
root 0.495282 19.1476 2.00887 -175.295 1.73277 180.355
lowerback -10.7676 2.49008 1.66886
upperback 3.04023 3.11889 -0.188676
thorax 9.40824 1.61071 -0.554402
lowerneck -12.7719 -1.52596 0.732149
upperneck 20.8888 -2.56405 -1.86518
head 8.57899 -1.61131 -1.07374
rclavicle 1.76111e-014 -6.95746e-016
rhumerus 70.2061 2.80722 -85.5965
rradius 2.60319
rwrist 52.8574
rhand -12.8137 3.33984
rfingers 7.12502
rthumb 13.2728 -26.2175
lclavicle 1.76111e-014 -6.95746e-016
lhumerus 70.8503 -11.0559 90.3495
lradius 4.34055
lwrist -76.2288
lhand -9.1345 2.36123
lfingers 7.12502
lthumb 16.817 31.653
rfemur -14.4869 -12.2158 17.9417
rtibia 32.3952
rfoot -17.4116 20.1497
rtoes -10.4084
lfemur -11.6844 10.8256 -17.4265
ltibia 30.3578
lfoot -17.5478 -8.52329
ltoes -4.9088
7
root 0.496374 19.1486 2.02567 -175.266 1.74115 180.35
lowerback -10.3436 2.48728 1.68366
upperback 3.0425 3.1259 -0.230604
thorax 9.1664 1.61781 -0.624538
lowerneck -12.6783 -1.54726 0.804005
upperneck 20.5679 -2.57141 -1.90946
head 8.45125 -1.60357 -1.09334
rclavicle 5.39825e-015 4.47266e-016
rhumerus 70.4544 2.7827 -85.5789
rradius 2.74647
rwrist 52.934
rhand -12.5324 3.38479
rfingers 7.12502
rthumb 13.5439 -26.1547
lclavicle 5.39825e-015 4.47266e-016
lhumerus 71.1001 -11.1228 90.1963
lradius 4.35963
lwrist -76.6877
lhand -9.17329 2.35943
lfingers 7.12502
lthumb 16.7796 31.6544
rfemur -14.5817 -11.8687 17.983
rtibia 32.4323
rfoot -17.5154 19.759
rtoes -10.5967
lfemur -11.799 10.8026 -17.4519
ltibia 30.3957
lfoot -17.5014 -8.44587
ltoes -5.02165
8
root 0.497406 19.1491 2.04179 -175.266 1.75962 180.335
lowerback -9.91639 2.48439 1.68995
upperback 3.07508 3.13478 -0.272958
thorax 8.95557 1.62577 -0.689196
lowerneck -12.5959 -1.57351 0.854908
upperneck 20.2468 -2.58342 -1.94359
head 8.32637 -1.59858 -1.10668
rclavicle 3.48619e-014 -2.93207e-015
rhumerus 70.6979 2.75044 -85.5553
rradius 2.79487
rwrist 53.0892
rhand -12.6668 3.5316
rfingers 7.12502
rthumb 13.4144 -26.0165
lclavicle 3.48619e-014 -2.93207e-015
lhumerus 71.3745 -11.1979 90.0459
lradius 4.28198
lwrist -76.8302
lhand -9.56102 2.51155
lfingers 7.12502
lthumb 16.4063 31.8377
rfemur -14.6608 -11.57 18.0044
rtibia 32.4906
rfoot -17.6187 19.4134
rtoes -10.7935
lfemur -11.8858 10.8156 -17.4832
ltibia 30.4492
lfoot -17.445 -8.38641
ltoes -5.043
9
root 0.499232 19.1477 2.06032 -175.288 1.74951 180.294
lowerback -9.43778 2.4645 1.63973
upperback 3.11213 3.12825 -0.29921
thorax 8.715 1.62292 -0.709896
lowerneck -12.5118 -1.6053 0.890771
upperneck 19.9076 -2.59962 -1.97496
head 8.19581 -1.59613 -1.11667
rclavicle -4.01669e-014 5.24295e-015
rhumerus 70.9109 2.72166 -85.4994
rradius 2.88653
rwrist 53.2081
rhand -12.847 3.73278
rfingers 7.12502
rthumb 13.2407 -25.8267
lclavicle -4.01669e-014 5.24295e-015
lhumerus 71.6373 -11.2712 89.9312
lradius 4.19759
lwrist -77.0651
lhand -9.95005 2.61362
lfingers 7.12502
lthumb 16.0317 31.9703
rfemur -14.7278 -11.2631 17.999
rtibia 32.5773
rfoot -17.7853 19.0357
rtoes -11.1137
lfemur -11.9638 10.755 -17.5376
ltibia 30.5167
lfoot -17.3834 -8.29942
ltoes -5.07657
10
root 0.500542 19.1451 2.07952 -175.298 1.76229 180.223
lowerback -8.96422 2.45962 1.60731
upperback 3.14885 3.14338 -0.377403
thorax 8.4821 1.63332 -0.791491
lowerneck -12.4009 -1.63994 0.991974
upperneck 19.5451 -2.63372 -2.004
head 8.05195 -1.59704 -1.13779
rclavicle -1.55735e-014 -3.3048e-015
rhumerus 71.0751 2.66872 -85.5121
rradius 3.05053
rwrist 53.1062
rhand -13.0077 3.94493
rfingers 7.12502
rthumb 13.0858 -25.6245
lclavicle -1.55735e-014 -3.3048e-015
lhumerus 71.8675 -11.3703 89.7562
lradius 4.15946
lwrist -77.3711
lhand -10.3063 2.66895
lfingers 7.12502
lthumb 15.6887 32.0529
rfemur -14.8371 -10.9554 17.9574
rtibia 32.6973
rfoot -17.9264 18.6684
rtoes -11.4163
lfemur -12.0743 10.7636 -17.6367
ltibia 30.6018
lfoot -17.3503 -8.2028
ltoes -5.39286
11
root 0.50272 19.1414 2.09945 -175.299 1.77821 180.113
lowerback -8.49351 2.45022 1.50256
upperback 3.19289 3.15939 -0.436631
thorax 8.25362 1.63999 -0.812073
lowerneck -12.2938 -1.68601 0.994418
upperneck 19.1637 -2.67348 -1.97562
head 7.90538 -1.60187 -1.12378
rclavicle -1.28853e-014 2.5345e-015
rhumerus 71.2139 2.62431 -85.4799
rradius 3.19272
rwrist 52.6644
rhand -13.378 4.25526
rfingers 7.12502
rthumb 12.7288 -25.3368
lclavicle -1.28853e-014 2.5345e-015
lhumerus 72.0722 -11.4578 89.6273
lradius 4.15459
lwrist -77.7201
lhand -10.6479 2.59949
lfingers 7.12502
lthumb 15.3597 32.009
rfemur -14.9726 -10.6245 17.8783
rtibia 32.8511
rfoot -18.099 18.2959
rtoes -11.7626
lfemur -12.2064 10.7651 -17.7776
ltibia 30.7099
lfoot -17.2969 -8.13647
ltoes -5.51614
12
root 0.504909 19.1353 2.121 -175.349 1.79688 179.988
lowerback -7.96586 2.42813 1.37646
upperback 3.26093 3.16145 -0.490588
thorax 8.01605 1.63964 -0.819121
lowerneck -12.2119 -1.72034 0.997497
upperneck 18.7924 -2.69394 -1.96583
head 7.76736 -1.5996 -1.11472
rclavicle 2.46043e-014 1.93815e-015
rhumerus 71.3552 2.62579 -85.4562
rradius 3.36614
rwrist 52.1954
rhand -13.6965 4.58931
rfingers 7.12502
rthumb 12.4217 -25.0216
lclavicle 2.46043e-014 1.93815e-015
lhumerus 72.2868 -11.5264 89.5027
lradius 4.15243
lwrist -78.1534
lhand -10.808 2.49336
lfingers 7.12502
lthumb 15.2055 31.9146
rfemur -15.0696 -10.2186 17.7745
rtibia 33.0324
rfoot -18.281 17.8689
rtoes -12.002
lfemur -12.3055 10.7551 -17.9282
ltibia 30.8513
lfoot -17.2689 -8.03589
ltoes -5.71312
13
root 0.507119 19.1284 2.14306 -175.369 1.81372 179.861
lowerback -7.48033 2.41554 1.27427
upperback 3.3487 3.17535 -0.577359
thorax 7.82807 1.648 -0.869791
lowerneck -12.1691 -1.75762 1.09689
upperneck 18.4055 -2.72908 -1.98802
head 7.62958 -1.59971 -1.13382
rclavicle 9.94962e-015 -9.53545e-016
rhumerus 71.489 2.57636 -85.47
rradius 3.6487
rwrist 51.6732
rhand -13.8985 4.92509
rfingers 7.12502
rthumb 12.227 -24.6975
lclavicle 9.94962e-015 -9.53545e-016
lhumerus 72.521 -11.6189 89.3231
lradius 4.1843
lwrist -78.6089
lhand -10.9501 2.23895
lfingers 7.12502
lthumb 15.0685 31.6705
rfemur -15.2205 -9.8392 17.6743
rtibia 33.2402
rfoot -18.4436 17.4473
rtoes -12.2654
lfemur -12.4674 10.7208 -18.0888
ltibia 31.0407
lfoot -17.2381 -7.93745
ltoes -5.85801
